<mxfile host="app.diagrams.net" modified="2022-10-06T13:49:41.208Z" agent="5.0 (Macintosh)" etag="O6O--TZu1bRC16h5M30Q" version="20.4.0" type="github">
  <diagram id="C5RBs43oDa-KdzZeNtuy" name="Page-1">
    <mxGraphModel dx="2573" dy="947" grid="1" gridSize="10" guides="1" tooltips="1" connect="1" arrows="1" fold="1" page="1" pageScale="1" pageWidth="827" pageHeight="1169" math="0" shadow="0">
      <root>
        <mxCell id="WIyWlLk6GJQsqaUBKTNV-0" />
        <mxCell id="WIyWlLk6GJQsqaUBKTNV-1" parent="WIyWlLk6GJQsqaUBKTNV-0" />
        <mxCell id="WIyWlLk6GJQsqaUBKTNV-3" value="start" style="rounded=1;whiteSpace=wrap;html=1;fontSize=12;glass=0;strokeWidth=1;shadow=0;" parent="WIyWlLk6GJQsqaUBKTNV-1" vertex="1">
          <mxGeometry x="312.5" y="10" width="120" height="40" as="geometry" />
        </mxCell>
        <mxCell id="WIyWlLk6GJQsqaUBKTNV-11" value="end" style="rounded=1;whiteSpace=wrap;html=1;fontSize=12;glass=0;strokeWidth=1;shadow=0;" parent="WIyWlLk6GJQsqaUBKTNV-1" vertex="1">
          <mxGeometry x="570" y="1020" width="120" height="40" as="geometry" />
        </mxCell>
        <mxCell id="8-QISS7HvjPgWoeZndpD-3" style="edgeStyle=orthogonalEdgeStyle;rounded=0;orthogonalLoop=1;jettySize=auto;html=1;exitX=0.5;exitY=1;exitDx=0;exitDy=0;" edge="1" parent="WIyWlLk6GJQsqaUBKTNV-1" source="8-QISS7HvjPgWoeZndpD-0">
          <mxGeometry relative="1" as="geometry">
            <mxPoint x="373" y="210" as="targetPoint" />
          </mxGeometry>
        </mxCell>
        <mxCell id="8-QISS7HvjPgWoeZndpD-4" value="driver.find_element(&quot;name&quot;, &quot;query&quot;)" style="edgeLabel;html=1;align=center;verticalAlign=middle;resizable=0;points=[];" vertex="1" connectable="0" parent="8-QISS7HvjPgWoeZndpD-3">
          <mxGeometry x="-0.1861" y="5" relative="1" as="geometry">
            <mxPoint x="-5" y="11" as="offset" />
          </mxGeometry>
        </mxCell>
        <mxCell id="8-QISS7HvjPgWoeZndpD-0" value="search = &#39;오아시스마켓&#39;" style="rounded=0;whiteSpace=wrap;html=1;" vertex="1" parent="WIyWlLk6GJQsqaUBKTNV-1">
          <mxGeometry x="300" y="80" width="145" height="60" as="geometry" />
        </mxCell>
        <mxCell id="8-QISS7HvjPgWoeZndpD-1" value="" style="endArrow=classic;html=1;rounded=0;exitX=0.5;exitY=1;exitDx=0;exitDy=0;" edge="1" parent="WIyWlLk6GJQsqaUBKTNV-1" source="WIyWlLk6GJQsqaUBKTNV-3" target="8-QISS7HvjPgWoeZndpD-0">
          <mxGeometry width="50" height="50" relative="1" as="geometry">
            <mxPoint x="390" y="520" as="sourcePoint" />
            <mxPoint x="440" y="470" as="targetPoint" />
          </mxGeometry>
        </mxCell>
        <mxCell id="8-QISS7HvjPgWoeZndpD-2" value="&lt;div&gt;element.send_keys(search) 검색어 전달&lt;br&gt;&lt;/div&gt;" style="rounded=0;whiteSpace=wrap;html=1;" vertex="1" parent="WIyWlLk6GJQsqaUBKTNV-1">
          <mxGeometry x="292.5" y="220" width="160" height="50" as="geometry" />
        </mxCell>
        <mxCell id="8-QISS7HvjPgWoeZndpD-10" style="edgeStyle=orthogonalEdgeStyle;rounded=0;orthogonalLoop=1;jettySize=auto;html=1;exitX=0.25;exitY=1;exitDx=0;exitDy=0;entryX=0.5;entryY=0;entryDx=0;entryDy=0;" edge="1" parent="WIyWlLk6GJQsqaUBKTNV-1" source="8-QISS7HvjPgWoeZndpD-5" target="8-QISS7HvjPgWoeZndpD-7">
          <mxGeometry relative="1" as="geometry" />
        </mxCell>
        <mxCell id="8-QISS7HvjPgWoeZndpD-5" value="click news" style="rounded=0;whiteSpace=wrap;html=1;" vertex="1" parent="WIyWlLk6GJQsqaUBKTNV-1">
          <mxGeometry x="290" y="290" width="160" height="40" as="geometry" />
        </mxCell>
        <mxCell id="8-QISS7HvjPgWoeZndpD-6" value="" style="endArrow=classic;html=1;rounded=0;exitX=0.5;exitY=1;exitDx=0;exitDy=0;" edge="1" parent="WIyWlLk6GJQsqaUBKTNV-1" source="8-QISS7HvjPgWoeZndpD-2" target="8-QISS7HvjPgWoeZndpD-5">
          <mxGeometry width="50" height="50" relative="1" as="geometry">
            <mxPoint x="390" y="510" as="sourcePoint" />
            <mxPoint x="440" y="460" as="targetPoint" />
          </mxGeometry>
        </mxCell>
        <mxCell id="8-QISS7HvjPgWoeZndpD-11" style="edgeStyle=orthogonalEdgeStyle;rounded=0;orthogonalLoop=1;jettySize=auto;html=1;exitX=1;exitY=0.5;exitDx=0;exitDy=0;entryX=0;entryY=0.5;entryDx=0;entryDy=0;" edge="1" parent="WIyWlLk6GJQsqaUBKTNV-1" source="8-QISS7HvjPgWoeZndpD-7" target="8-QISS7HvjPgWoeZndpD-8">
          <mxGeometry relative="1" as="geometry" />
        </mxCell>
        <mxCell id="8-QISS7HvjPgWoeZndpD-12" value="Javascript_Executor" style="edgeLabel;html=1;align=center;verticalAlign=middle;resizable=0;points=[];" vertex="1" connectable="0" parent="8-QISS7HvjPgWoeZndpD-11">
          <mxGeometry x="-0.1789" y="-3" relative="1" as="geometry">
            <mxPoint as="offset" />
          </mxGeometry>
        </mxCell>
        <mxCell id="8-QISS7HvjPgWoeZndpD-7" value="click option" style="rounded=0;whiteSpace=wrap;html=1;" vertex="1" parent="WIyWlLk6GJQsqaUBKTNV-1">
          <mxGeometry x="260" y="370" width="120" height="30" as="geometry" />
        </mxCell>
        <mxCell id="8-QISS7HvjPgWoeZndpD-14" style="edgeStyle=orthogonalEdgeStyle;rounded=0;orthogonalLoop=1;jettySize=auto;html=1;exitX=0.5;exitY=1;exitDx=0;exitDy=0;" edge="1" parent="WIyWlLk6GJQsqaUBKTNV-1" source="8-QISS7HvjPgWoeZndpD-8" target="8-QISS7HvjPgWoeZndpD-13">
          <mxGeometry relative="1" as="geometry" />
        </mxCell>
        <mxCell id="8-QISS7HvjPgWoeZndpD-8" value="click after 1 year" style="rounded=0;whiteSpace=wrap;html=1;" vertex="1" parent="WIyWlLk6GJQsqaUBKTNV-1">
          <mxGeometry x="510" y="350" width="120" height="30" as="geometry" />
        </mxCell>
        <mxCell id="8-QISS7HvjPgWoeZndpD-19" style="edgeStyle=orthogonalEdgeStyle;rounded=0;orthogonalLoop=1;jettySize=auto;html=1;exitX=0.5;exitY=1;exitDx=0;exitDy=0;" edge="1" parent="WIyWlLk6GJQsqaUBKTNV-1" source="8-QISS7HvjPgWoeZndpD-13" target="8-QISS7HvjPgWoeZndpD-15">
          <mxGeometry relative="1" as="geometry" />
        </mxCell>
        <mxCell id="8-QISS7HvjPgWoeZndpD-13" value="find_naver_news()" style="rounded=0;whiteSpace=wrap;html=1;" vertex="1" parent="WIyWlLk6GJQsqaUBKTNV-1">
          <mxGeometry x="510" y="410" width="120" height="60" as="geometry" />
        </mxCell>
        <mxCell id="8-QISS7HvjPgWoeZndpD-15" value="naver_news_URL deque" style="swimlane;fontStyle=0;childLayout=stackLayout;horizontal=1;startSize=30;horizontalStack=0;resizeParent=1;resizeParentMax=0;resizeLast=0;collapsible=1;marginBottom=0;" vertex="1" parent="WIyWlLk6GJQsqaUBKTNV-1">
          <mxGeometry x="500" y="500" width="140" height="120" as="geometry" />
        </mxCell>
        <mxCell id="8-QISS7HvjPgWoeZndpD-16" value="Item 1" style="text;strokeColor=none;fillColor=none;align=left;verticalAlign=middle;spacingLeft=4;spacingRight=4;overflow=hidden;points=[[0,0.5],[1,0.5]];portConstraint=eastwest;rotatable=0;" vertex="1" parent="8-QISS7HvjPgWoeZndpD-15">
          <mxGeometry y="30" width="140" height="30" as="geometry" />
        </mxCell>
        <mxCell id="8-QISS7HvjPgWoeZndpD-17" value="Item 2" style="text;strokeColor=none;fillColor=none;align=left;verticalAlign=middle;spacingLeft=4;spacingRight=4;overflow=hidden;points=[[0,0.5],[1,0.5]];portConstraint=eastwest;rotatable=0;" vertex="1" parent="8-QISS7HvjPgWoeZndpD-15">
          <mxGeometry y="60" width="140" height="30" as="geometry" />
        </mxCell>
        <mxCell id="8-QISS7HvjPgWoeZndpD-18" value="Item 3" style="text;strokeColor=none;fillColor=none;align=left;verticalAlign=middle;spacingLeft=4;spacingRight=4;overflow=hidden;points=[[0,0.5],[1,0.5]];portConstraint=eastwest;rotatable=0;" vertex="1" parent="8-QISS7HvjPgWoeZndpD-15">
          <mxGeometry y="90" width="140" height="30" as="geometry" />
        </mxCell>
        <mxCell id="8-QISS7HvjPgWoeZndpD-20" value="make_df" style="swimlane;" vertex="1" parent="WIyWlLk6GJQsqaUBKTNV-1">
          <mxGeometry x="-90" y="440" width="560" height="530" as="geometry" />
        </mxCell>
        <mxCell id="8-QISS7HvjPgWoeZndpD-21" value="make_raw_data" style="swimlane;" vertex="1" parent="8-QISS7HvjPgWoeZndpD-20">
          <mxGeometry x="140" y="200" width="292.5" height="290" as="geometry" />
        </mxCell>
        <mxCell id="8-QISS7HvjPgWoeZndpD-26" style="edgeStyle=orthogonalEdgeStyle;rounded=0;orthogonalLoop=1;jettySize=auto;html=1;exitX=0.5;exitY=1;exitDx=0;exitDy=0;entryX=0.547;entryY=0.083;entryDx=0;entryDy=0;entryPerimeter=0;" edge="1" parent="8-QISS7HvjPgWoeZndpD-21" source="8-QISS7HvjPgWoeZndpD-23" target="8-QISS7HvjPgWoeZndpD-25">
          <mxGeometry relative="1" as="geometry" />
        </mxCell>
        <mxCell id="8-QISS7HvjPgWoeZndpD-23" value="queue_ = naver_news_URL deque" style="rounded=0;whiteSpace=wrap;html=1;" vertex="1" parent="8-QISS7HvjPgWoeZndpD-21">
          <mxGeometry x="49.379999999999995" y="40" width="193.75" height="20" as="geometry" />
        </mxCell>
        <mxCell id="8-QISS7HvjPgWoeZndpD-25" value="queue_ is Empty?" style="rhombus;whiteSpace=wrap;html=1;" vertex="1" parent="8-QISS7HvjPgWoeZndpD-21">
          <mxGeometry x="60" y="90" width="151.87" height="60" as="geometry" />
        </mxCell>
        <mxCell id="8-QISS7HvjPgWoeZndpD-28" value="&lt;div&gt;put data in 4 lists&lt;/div&gt;&lt;div&gt;contets, title, url, date&lt;br&gt;&lt;/div&gt;" style="rounded=0;whiteSpace=wrap;html=1;" vertex="1" parent="8-QISS7HvjPgWoeZndpD-21">
          <mxGeometry x="75.93" y="200" width="120" height="50" as="geometry" />
        </mxCell>
        <mxCell id="8-QISS7HvjPgWoeZndpD-27" value="false" style="edgeStyle=orthogonalEdgeStyle;rounded=0;orthogonalLoop=1;jettySize=auto;html=1;exitX=0.5;exitY=1;exitDx=0;exitDy=0;entryX=0.5;entryY=0;entryDx=0;entryDy=0;" edge="1" parent="8-QISS7HvjPgWoeZndpD-21" source="8-QISS7HvjPgWoeZndpD-25" target="8-QISS7HvjPgWoeZndpD-28">
          <mxGeometry relative="1" as="geometry">
            <mxPoint x="136" y="190" as="targetPoint" />
          </mxGeometry>
        </mxCell>
        <mxCell id="8-QISS7HvjPgWoeZndpD-35" value="&lt;div&gt;next_.extend(&quot;btn_next&quot;)&lt;/div&gt;" style="edgeStyle=orthogonalEdgeStyle;rounded=0;orthogonalLoop=1;jettySize=auto;html=1;exitX=0.5;exitY=1;exitDx=0;exitDy=0;entryX=0.5;entryY=0;entryDx=0;entryDy=0;" edge="1" parent="8-QISS7HvjPgWoeZndpD-20" source="8-QISS7HvjPgWoeZndpD-29" target="8-QISS7HvjPgWoeZndpD-33">
          <mxGeometry relative="1" as="geometry" />
        </mxCell>
        <mxCell id="8-QISS7HvjPgWoeZndpD-29" value="naver_news_URL deque" style="shape=hexagon;perimeter=hexagonPerimeter2;whiteSpace=wrap;html=1;fixedSize=1;" vertex="1" parent="8-QISS7HvjPgWoeZndpD-20">
          <mxGeometry x="212.81" y="30" width="146.87" height="30" as="geometry" />
        </mxCell>
        <mxCell id="8-QISS7HvjPgWoeZndpD-34" value="false" style="edgeStyle=orthogonalEdgeStyle;rounded=0;orthogonalLoop=1;jettySize=auto;html=1;exitX=0.5;exitY=1;exitDx=0;exitDy=0;" edge="1" parent="8-QISS7HvjPgWoeZndpD-20" source="8-QISS7HvjPgWoeZndpD-33" target="8-QISS7HvjPgWoeZndpD-21">
          <mxGeometry relative="1" as="geometry" />
        </mxCell>
        <mxCell id="8-QISS7HvjPgWoeZndpD-33" value="obj.get_attribute(&quot;aria-disabled&quot;) ?" style="rhombus;whiteSpace=wrap;html=1;" vertex="1" parent="8-QISS7HvjPgWoeZndpD-20">
          <mxGeometry x="142.5" y="100" width="290" height="60" as="geometry" />
        </mxCell>
        <mxCell id="8-QISS7HvjPgWoeZndpD-38" value="next_.pop()" style="edgeStyle=orthogonalEdgeStyle;rounded=0;orthogonalLoop=1;jettySize=auto;html=1;exitX=0;exitY=0.5;exitDx=0;exitDy=0;entryX=0;entryY=0.5;entryDx=0;entryDy=0;" edge="1" parent="8-QISS7HvjPgWoeZndpD-20" source="8-QISS7HvjPgWoeZndpD-21" target="8-QISS7HvjPgWoeZndpD-33">
          <mxGeometry relative="1" as="geometry">
            <mxPoint x="80" y="100" as="targetPoint" />
            <Array as="points">
              <mxPoint x="70" y="345" />
              <mxPoint x="70" y="130" />
            </Array>
          </mxGeometry>
        </mxCell>
        <mxCell id="8-QISS7HvjPgWoeZndpD-22" style="edgeStyle=orthogonalEdgeStyle;rounded=0;orthogonalLoop=1;jettySize=auto;html=1;exitX=0;exitY=0.5;exitDx=0;exitDy=0;" edge="1" parent="WIyWlLk6GJQsqaUBKTNV-1" source="8-QISS7HvjPgWoeZndpD-17">
          <mxGeometry relative="1" as="geometry">
            <mxPoint x="450" y="575" as="targetPoint" />
          </mxGeometry>
        </mxCell>
        <mxCell id="8-QISS7HvjPgWoeZndpD-49" style="edgeStyle=orthogonalEdgeStyle;rounded=0;orthogonalLoop=1;jettySize=auto;html=1;exitX=1;exitY=0.5;exitDx=0;exitDy=0;entryX=0;entryY=0.75;entryDx=0;entryDy=0;" edge="1" parent="WIyWlLk6GJQsqaUBKTNV-1" source="8-QISS7HvjPgWoeZndpD-40" target="WIyWlLk6GJQsqaUBKTNV-11">
          <mxGeometry relative="1" as="geometry" />
        </mxCell>
        <mxCell id="8-QISS7HvjPgWoeZndpD-40" value="pd.Dataframe(raw_dict)" style="shape=document;whiteSpace=wrap;html=1;boundedLbl=1;" vertex="1" parent="WIyWlLk6GJQsqaUBKTNV-1">
          <mxGeometry x="310" y="1010" width="150" height="80" as="geometry" />
        </mxCell>
        <mxCell id="8-QISS7HvjPgWoeZndpD-48" style="edgeStyle=orthogonalEdgeStyle;rounded=0;orthogonalLoop=1;jettySize=auto;html=1;exitX=0.5;exitY=1;exitDx=0;exitDy=0;entryX=0.57;entryY=0;entryDx=0;entryDy=0;entryPerimeter=0;" edge="1" parent="WIyWlLk6GJQsqaUBKTNV-1" source="8-QISS7HvjPgWoeZndpD-41" target="8-QISS7HvjPgWoeZndpD-40">
          <mxGeometry relative="1" as="geometry" />
        </mxCell>
        <mxCell id="8-QISS7HvjPgWoeZndpD-41" value="raw_dict" style="swimlane;fontStyle=0;childLayout=stackLayout;horizontal=1;startSize=30;horizontalStack=0;resizeParent=1;resizeParentMax=0;resizeLast=0;collapsible=1;marginBottom=0;" vertex="1" parent="WIyWlLk6GJQsqaUBKTNV-1">
          <mxGeometry x="362.5" y="830" width="67.5" height="120" as="geometry" />
        </mxCell>
        <mxCell id="8-QISS7HvjPgWoeZndpD-42" value="Item 1" style="text;strokeColor=none;fillColor=none;align=left;verticalAlign=middle;spacingLeft=4;spacingRight=4;overflow=hidden;points=[[0,0.5],[1,0.5]];portConstraint=eastwest;rotatable=0;" vertex="1" parent="8-QISS7HvjPgWoeZndpD-41">
          <mxGeometry y="30" width="67.5" height="30" as="geometry" />
        </mxCell>
        <mxCell id="8-QISS7HvjPgWoeZndpD-43" value="Item 2" style="text;strokeColor=none;fillColor=none;align=left;verticalAlign=middle;spacingLeft=4;spacingRight=4;overflow=hidden;points=[[0,0.5],[1,0.5]];portConstraint=eastwest;rotatable=0;" vertex="1" parent="8-QISS7HvjPgWoeZndpD-41">
          <mxGeometry y="60" width="67.5" height="30" as="geometry" />
        </mxCell>
        <mxCell id="8-QISS7HvjPgWoeZndpD-44" value="Item 3" style="text;strokeColor=none;fillColor=none;align=left;verticalAlign=middle;spacingLeft=4;spacingRight=4;overflow=hidden;points=[[0,0.5],[1,0.5]];portConstraint=eastwest;rotatable=0;" vertex="1" parent="8-QISS7HvjPgWoeZndpD-41">
          <mxGeometry y="90" width="67.5" height="30" as="geometry" />
        </mxCell>
        <mxCell id="8-QISS7HvjPgWoeZndpD-45" style="edgeStyle=orthogonalEdgeStyle;rounded=0;orthogonalLoop=1;jettySize=auto;html=1;exitX=1;exitY=0.5;exitDx=0;exitDy=0;entryX=0.5;entryY=0;entryDx=0;entryDy=0;" edge="1" parent="WIyWlLk6GJQsqaUBKTNV-1" source="8-QISS7HvjPgWoeZndpD-33" target="8-QISS7HvjPgWoeZndpD-41">
          <mxGeometry relative="1" as="geometry">
            <mxPoint x="400" y="570" as="targetPoint" />
            <Array as="points">
              <mxPoint x="410" y="570" />
              <mxPoint x="410" y="810" />
            </Array>
          </mxGeometry>
        </mxCell>
        <mxCell id="8-QISS7HvjPgWoeZndpD-47" value="True" style="edgeLabel;html=1;align=center;verticalAlign=middle;resizable=0;points=[];" vertex="1" connectable="0" parent="8-QISS7HvjPgWoeZndpD-45">
          <mxGeometry x="-0.7248" y="-4" relative="1" as="geometry">
            <mxPoint x="-1" y="-4" as="offset" />
          </mxGeometry>
        </mxCell>
      </root>
    </mxGraphModel>
  </diagram>
</mxfile>
